# xmcd
#
# Track frame offsets: 
#        150
#        12595
#        23263
#        33958
#        45168
#        56038
#        71290
#        85385
#        97308
#        107238
#        119873
#        129245
#        142600
#        153198
#        165005
#        174425
#        184385
#        198370
#        209533
#        217945
#        227633
#        239570
#        250908
#        259798
#        270500
#        281970
#        293773
#        305120
#        317510
#        328490
#
# Disc length: 4533 seconds
#
# Revision: 2
# Processed by: cddbd v1.5.2PL0 Copyright (c) Steve Scherf et al.
# Submitted via: ExactAudioCopy v1.3
#
DISCID=b111b31e
DTITLE=Merle Travis - Guitar Rags And A Too Fast Past_CD5
DYEAR=1994
DGENRE=Country
TTITLE0=Louisiana Boogie
TTITLE1=Guitar Rag
TTITLE2=Saturday Night Shuffle
TTITLE3=The Waltz You Saved for Me
TTITLE4=Crazy 'Bout You
TTITLE5=Re-Enlistment Blues
TTITLE6=Dance of the Golden Rod
TTITLE7=Gambler's Guitar
TTITLE8=Shut Up and Drink Your Beer
TTITLE9=Seminole Drag
TTITLE10=Jolie Fille (Pretty Girl)
TTITLE11=I Can't Afford the Coffee (I'm Tired of Drinkin' Weak Tea Blu
TTITLE11=es)
TTITLE12=Blue Bell
TTITLE13=Memphis Blues
TTITLE14=The Sheik Of Araby
TTITLE15=On a Bicycle Built for Two (Daisy Belle)
TTITLE16=Black Diamond Blues
TTITLE17=Blue Smoke (Remake)
TTITLE18=Walking the Strings
TTITLE19=Saturday Night Shuffle
TTITLE20=Sleepy Time Gal
TTITLE21=Tuck Me to Sleep in My Old 'Tucky Home
TTITLE22=Rockabye Rag
TTITLE23=Bugle Call Rag
TTITLE24=Cuddle Up a Little Closer, Lovey Mine
TTITLE25=Beer Barrel Polka
TTITLE26=Turn My Picture Upside Down
TTITLE27=If You Want It, I've Got It
TTITLE28=Lazy River
TTITLE29=Hunky Dory
EXTD=
EXTT0=
EXTT1=
EXTT2=
EXTT3=
EXTT4=
EXTT5=
EXTT6=
EXTT7=
EXTT8=
EXTT9=
EXTT10=
EXTT11=
EXTT12=
EXTT13=
EXTT14=
EXTT15=
EXTT16=
EXTT17=
EXTT18=
EXTT19=
EXTT20=
EXTT21=
EXTT22=Incorrectly identified as "Rockabye Rock" on album cover.
EXTT23=
EXTT24=
EXTT25=
EXTT26=
EXTT27=
EXTT28=
EXTT29=
PLAYORDER=
